<?xml version="1.0" encoding="utf-8"?>
<!-- Generator: Adobe Illustrator 24.3.0, SVG Export Plug-In . SVG Version: 6.00 Build 0)  -->
<svg version="1.1" id="Laag_1" xmlns="http://www.w3.org/2000/svg" xmlns:xlink="http://www.w3.org/1999/xlink" x="0px" y="0px"
	 viewBox="0 0 595.28 595.28" style="enable-background:new 0 0 595.28 595.28;" xml:space="preserve">
<style type="text/css">
	.st0{fill:#173751;}
	.st1{fill:#17375D;}
	.st2{fill:none;}
	.st3{clip-path:url(#SVGID_2_);fill:#F4BBCE;}
	.st4{clip-path:url(#SVGID_4_);fill:#F4BBCE;}
	.st5{fill:#F4BBCE;}
	.st6{fill:none;stroke:#F4BBCE;stroke-width:6;stroke-miterlimit:10;}
</style>
<path class="st0" d="M474.54,510.05H120.73c-15.8,0-28.62-12.81-28.62-28.62V127.62c0-15.8,12.81-28.62,28.62-28.62h353.81
	c15.8,0,28.62,12.81,28.62,28.62v353.81C503.16,497.23,490.35,510.05,474.54,510.05z"/>
<circle class="st1" cx="298.26" cy="255.04" r="129.59"/>
<circle class="st0" cx="298.26" cy="255.08" r="129.59"/>
<circle class="st0" cx="298.27" cy="255.99" r="79.54"/>
<circle class="st2" cx="298.25" cy="255.09" r="129.59"/>
<g>
	<defs>
		<polygon id="SVGID_1_" points="297.96,385.44 297.96,255.99 427.83,256.02 448.95,312.52 434.9,368.77 385.53,404.24 
			328.46,398.31 		"/>
	</defs>
	<clipPath id="SVGID_2_">
		<use xlink:href="#SVGID_1_"  style="overflow:visible;"/>
	</clipPath>
	<ellipse class="st3" cx="298.05" cy="255.56" rx="129.87" ry="129.42"/>
</g>
<g>
	<defs>
		<path id="SVGID_3_" d="M297.97,258.38l0-81.81l45.28-6.57c0,0,39.93,13.14,40.86,17.36s5.17,26.9,5.37,26.83
			c0.2-0.08,0,21.45,0,21.45L378,257.47L297.97,258.38z"/>
	</defs>
	<clipPath id="SVGID_4_">
		<use xlink:href="#SVGID_3_"  style="overflow:visible;"/>
	</clipPath>
	<ellipse class="st4" cx="297.96" cy="257.47" rx="80.03" ry="80.9"/>
</g>
<circle class="st2" cx="299.43" cy="257.38" r="79.54"/>
<g>
	<g>
		<g>
			<path class="st5" d="M141.03,418.07v-3.71h12.85v5.08h-0.94L141.03,418.07z M154.83,470.2l11.91,1.37v3.71h-25.71v-3.71
				l11.91-1.37H154.83z M149.59,442.58c0-9.38,0-18.84-0.27-28.22h9.13c-0.27,9.46-0.27,18.4-0.27,29.09v2.74
				c0,10.25,0,19.72,0.27,29.1h-9.13c0.27-9.19,0.27-18.66,0.27-28.22V442.58z M153.89,442.95h11.34c9.79,0,14.41-5.28,14.41-12.57
				c0-7.63-4.09-11.78-13.44-11.78h-12.32v-4.25h12.61c13.95,0,22.13,5.9,22.13,15.97c0,7.69-6.05,14.71-18.21,15.7l0.26-0.74
				c7,0.63,10.98,3.73,13.39,12.01l4.34,15.05l-3.09-1.9l9.62,1.11v3.71c-1.79,0.57-3.94,0.93-6.75,0.93c-5.76,0-8.34-1.5-9.42-5.85
				l-3.62-14.6c-1.77-7.3-5.07-8.66-12.51-8.66h-8.76V442.95z"/>
			<path class="st5" d="M256.3,444.82c0,20-13.67,31.85-27.83,31.85s-27.92-11.06-27.92-31.85c0-20,13.84-31.85,27.92-31.85
				S256.3,424.04,256.3,444.82z M228.47,472.07c12.63,0,17.9-13.52,17.9-27.25c0-13.73-5.27-27.26-17.9-27.26
				s-17.98,13.52-17.98,27.26C210.48,458.56,215.84,472.07,228.47,472.07z"/>
			<path class="st5" d="M264.2,418.07v-3.71h25.73v3.71L278,419.43h-1.87L264.2,418.07z M295.55,470.18
				c10.34,0,15.6-5.89,15.6-22.04v-33.79h4.63v36.02c0,19.13-9.27,26.29-21.71,26.29c-13.21,0-22.19-7.33-22.19-24.31v-9.83
				c0-9.35,0-18.81-0.27-28.17h9.14c-0.27,9.18-0.27,18.63-0.27,28.17v7.18C280.48,465.26,286.3,470.18,295.55,470.18z
				 M311.83,419.4l-9.99-1.34v-3.71h21.84v3.71l-9.98,1.34H311.83z"/>
			<path class="st5" d="M330.37,471.57l9.57-1.37h1.87l10.54,1.37v3.71h-21.97V471.57z M336.05,417.2l5.62,2.21l-10.86-1.34v-3.72
				h14.05l37.49,51.57v9.96h-3.19L336.05,417.2z M338.11,414.36l4.63,3.72v57.21h-4.63V414.36z M368.11,414.36h21.97v3.71
				l-9.11,1.37h-1.86l-11-1.37V414.36z M377.72,414.36h4.63v61.54l-4.63-4.63V414.36z"/>
			<path class="st5" d="M397.73,418.07v-3.71h12.85v5.08h-0.94L397.73,418.07z M410.58,470.2v5.08h-12.85v-3.71l11.91-1.37H410.58z
				 M406.28,442.58c0-9.38,0-18.84-0.27-28.22h9.14c-0.27,9.2-0.27,18.66-0.27,28.22v3.43c0,10.43,0,19.89,0.27,29.27h-9.14
				c0.27-9.19,0.27-18.66,0.27-29.27V442.58z M410.58,471.03h11.69c14.07,0,21.82-9.61,21.82-26.13c0-17.14-7.75-26.3-21.04-26.3
				h-12.47v-4.25h14.01c17.42,0,29.41,10.78,29.41,30.54c0,19.63-13.44,30.39-31.22,30.39h-12.2V471.03z"/>
		</g>
	</g>
</g>
<path class="st5" d="M297.97,192.91l0.62-67.46c0,0,70.71-7.7,112.38,65.04s0,87.87,0,87.87L297.97,192.91z"/>
<circle class="st6" cx="299.43" cy="254.57" r="129.59"/>
<g>
	<path class="st0" d="M306.92,175.35c0,0,0.39-6.04,3.27-6.05c19.46-0.11,42.38,11.36,50.12,17.25c13.14,9.99,22.5,25.49,22.5,38.06
		c0,12.4-5.04,22.62-15.11,30.68c-10.08,8.06-23.75,12.8-41.02,14.21c-1.62,0.18-2.52,0.44-2.7,0.8c0,0.71,0.9,1.06,2.7,1.06
		c18.89,3.2,31.89,9.72,39,19.58c7.1,9.86,11.83,27.66,14.17,53.4c1.43,14.56,6.47,21.84,15.11,21.84c2.7,0,4.05-0.53,4.05-1.59
		c0-0.17-0.09-0.35-0.27-0.53c-0.9-1.95-1.35-3.54-1.35-4.78c0-3.72,1.98-5.58,5.94-5.58c4.32,0,6.47,2.22,6.47,6.64
		c0,7.44-6.3,11.15-18.89,11.15c-14.03,0-25.01-5.75-32.92-17.26c-3.42-4.96-5.63-9.74-6.61-14.34c-0.99-4.6-2.47-16.29-4.45-35.06
		c-1.08-11.33-4.77-19.34-11.06-24.04c-6.3-4.69-16.85-11.14-28.52-11.86c0,0-1.72-0.13-2.11-1.28c0.07-0.14,3.71-0.01,4.72-0.05
		c16.6-0.68,25.06-3.04,32.52-9.26c7.65-6.37,17.36-19.9,17.36-34.25c0-28.01-25.83-38.26-30.31-40.35
		C324.91,181.58,311.36,175.72,306.92,175.35"/>
</g>
<g>
	<g>
		<path class="st0" d="M310.49,169.3c19.46-0.11,43.05,10.52,50.78,16.4c13.14,9.99,21.83,26.33,21.83,38.9
			c0,12.4-5.04,22.62-15.11,30.68c-10.08,8.06-23.75,12.8-41.02,14.21c-1.62,0.18-2.52,0.44-2.7,0.8c0,0.71,0.9,1.06,2.7,1.06
			c18.89,3.2,31.89,9.72,39,19.58c7.1,9.86,11.83,27.66,14.17,53.4c1.43,14.56,6.47,21.84,15.11,21.84c2.7,0,4.05-0.53,4.05-1.59
			c0-0.17-0.09-0.35-0.27-0.53c-0.9-1.95-1.35-3.54-1.35-4.78c0-3.72,1.98-5.58,5.94-5.58c4.32,0,6.47,2.22,6.47,6.64
			c0,7.44-6.3,11.15-18.89,11.15c-14.03,0-25.01-5.75-32.92-17.26c-3.42-4.96-5.63-9.74-6.61-14.34c-0.99-4.6-2.47-16.29-4.45-35.06
			c-1.08-11.33-4.77-19.34-11.06-24.04c-6.3-4.69-9.12-10.48-14.18-10.12s-1.01-1.51,1.1-1.51c2.12,0-4.95-0.41-4.54-0.41
			c16.62,0.02,16.76-4.19,24.22-10.4c7.65-6.37,17.36-19.9,17.36-34.24c0-28.01-25.83-38.26-30.31-40.35
			c-1.83-0.85-5.07-1.57-8.59-2.15c-5.34-0.88-11.32-1.43-13.99-1.65"/>
	</g>
	<path class="st0" d="M350.94,198.62c0,0-19.38-19.29-48.21-18.69l0.5-12.95c0,0,40-0.32,61.5,21.59"/>
</g>
<path class="st0" d="M372.72,200.06c0,0-17.76-21.96-53.37-30.9c-35.61-8.94-28.6,12.6-28.6,12.6s52.15-2.17,68.21,31.67
	S372.72,200.06,372.72,200.06z"/>
<path class="st0" d="M310.5,167.36"/>
<polygon class="st5" points="389.56,266.14 369.43,261.43 384.86,247.29 "/>
</svg>
